<?xml version="1.0" encoding="utf-8"?>
<!-- Generator: Adobe Illustrator 23.0.2, SVG Export Plug-In . SVG Version: 6.00 Build 0)  -->
<svg version="1.1" xmlns="http://www.w3.org/2000/svg" xmlns:xlink="http://www.w3.org/1999/xlink" x="0px" y="0px"
	 viewBox="0 0 709.97 653.29" style="enable-background:new 0 0 709.97 653.29;" xml:space="preserve">
<style type="text/css">
	.st0{fill:#FFFFFF;stroke:#000000;stroke-width:2;stroke-linecap:round;stroke-linejoin:round;stroke-miterlimit:10;}
	.st1{fill:#45D62F;stroke:#000000;stroke-width:2;stroke-linecap:round;stroke-linejoin:round;}
	.st2{fill:none;stroke:#000000;stroke-width:2;stroke-linecap:round;stroke-linejoin:round;stroke-miterlimit:10;}
	.st3{fill:#FFEC00;stroke:#000000;stroke-width:2;stroke-linecap:round;stroke-linejoin:round;}
	.st4{fill:none;stroke:#000000;stroke-linecap:round;stroke-linejoin:round;stroke-miterlimit:10;}
	.st5{fill:none;stroke:#000000;stroke-width:4;stroke-linecap:round;stroke-linejoin:round;stroke-miterlimit:10;}
	.st6{fill:#FFFFFF;}
	.st7{fill:#FFFFFF;stroke:#000000;stroke-width:2;stroke-linecap:round;stroke-linejoin:round;}
	.st8{fill:none;stroke:#000000;stroke-width:2;stroke-linecap:round;stroke-linejoin:round;}
</style>
<g id="window">
	<g>
		<path class="st0" d="M413.08,262.51c0,0,1.56-77.01,4.39-89.88c5.19-23.57,27.16-23.17,41.15-23.97s35.55,3.99,40.75,27.96
			s4.79,110.65,4.79,110.65"/>
		<path class="st0" d="M429.03,111.54c0,0-1.89-4.48-6.48-7.78c-4.6-3.3-8.48-4.6-9.31-8.13s-2.36,9.55-1.3,14.73
			s4.83,14.26,5.77,17.56c0.94,3.3,0.47,4.95,3.89,6.36s6.84,3.3,6.95,5.77c0.12,2.47-1.65,5.89,4.01,11.78
			c5.66,5.89,11.67,6.48,11.67,6.48s-3.3,12.73,16.14,15.08c19.44,2.36,15.08-14.73,15.08-14.73s8.01-0.71,13.55-5.42
			c5.54-4.71,8.25-15.91,9.43-19.8c1.18-3.89,5.19-7.31,11.2-11.43c6.01-4.12,5.66-29.34,5.66-29.34s-7.31,8.96-11.2,10.13
			c-3.89,1.18-9.78,6.95-9.78,6.95s-15.08-17.44-25.81-18.15s-18.15,4.48-23.8,6.01s-12.02,4.01-13.55,6.6
			C429.62,106.83,429.03,111.54,429.03,111.54z"/>
		<circle class="st1" cx="446.76" cy="137.29" r="13.75"/>
		<circle class="st1" cx="477.45" cy="137.29" r="13.75"/>
		<g>
			<path class="st0" d="M491.16,198.34c0,0-7.69-11.91-17.3-10.61c-9.61,1.3-17.42,10.57-18.58,26.07
				c-0.51,6.87,3.61,25.24,3.61,25.24l1.68-5.22l2.45,6.62l0.52-4.58l3.48,7.09l1.2-5.45l2.5,5.09c0,0-0.55-11.39-0.07-19.09
				c0.48-7.7,1.29-12.9,1.29-12.9s1.2,5.1,1.56,8.06c0.36,2.96,1.39,14.02,1.39,14.02s1.81-10.06,2.32-16.68
				c0.37-4.8-0.11-17.6-0.11-17.6"/>
			<path class="st2" d="M468.09,237.75c0,0-1.32-6.8-1.25-13.67s0.67-10.64,0.67-10.64"/>
			<path class="st2" d="M463.85,236.58c0,0-1.32-6.8-1.25-13.67c0.07-6.87,0.67-10.64,0.67-10.64"/>
			<path class="st2" d="M460.32,234.41c0,0-1.32-6.8-1.25-13.67c0.07-6.87,0.67-10.64,0.67-10.64"/>
		</g>
		<path class="st3" d="M446.43,125.65c0,0-3.2,4.55-2.87,11.13c0.34,6.58,3.37,12.14,3.37,12.14s3.04-7.18,3.04-12.14
			C449.98,130.71,446.43,125.65,446.43,125.65z"/>
		<path class="st3" d="M477.13,125.65c0,0-3.2,4.55-2.87,11.13c0.34,6.58,3.37,12.14,3.37,12.14s3.04-7.18,3.04-12.14
			C480.67,130.71,477.13,125.65,477.13,125.65z"/>
		<path class="st2" d="M430.79,128.98c0,0,2.87-16.53,19.23-16.53"/>
		<path class="st2" d="M477.33,112.62c0,0,16.53,2.87,16.53,19.23"/>
		<path d="M455.61,154.63c0,0,3.83-9,6.41-9c2.59,0,5.38,9,5.38,9s-2.69-1.65-5.48-1.65C459.12,152.97,455.61,154.63,455.61,154.63z
			"/>
		<path class="st2" d="M450.65,162.4c-0.67,0.48-1.71,1.92-0.94,3.29c0.66,1.18,1.66,3.03,5.74,1.55c6-2.17,10.94,1.74,14.67,0
			c2.84-1.32,2.68-3.64,1.72-4.55c-1.14-1.09-4.65-1.97-5.9-3.52s-1.69-4.06-4.5-4.11c-3.1-0.05-4.5,4.52-6.36,5.35
			C453.23,161.24,451.78,161.6,450.65,162.4z"/>
		<polygon class="st4" points="450.76,162.4 453.6,165.64 454.15,160.73 		"/>
		<polygon class="st4" points="454.51,160.23 457.27,163.67 457.65,157.85 		"/>
		<polygon class="st4" points="458.42,156.39 460.92,160.94 462.5,155.31 		"/>
		<polygon class="st4" points="463.01,156.78 463.96,162.6 465.64,158.4 		"/>
		<polygon class="st4" points="466.07,160.01 466.94,165.13 469.54,161.19 		"/>
		<path class="st2" d="M435.39,149.76c0,0,4.19,4.38,11.76,5.02"/>
		<path class="st2" d="M471.14,152.59c0,0,5.74,2.55,10.39,0.46"/>
		<path class="st2" d="M421.02,108.12c0.12,0.35,5.66,8.48,5.54,16.03"/>
		<path class="st2" d="M502.72,108.92c-0.12,0.35-5.66,8.48-5.54,16.03"/>
		<g>
			<path class="st0" d="M436.38,228.04c0,0,7.57-11.88,17.03-10.58c9.45,1.3,17.14,10.54,18.29,26c0.51,6.85-3.56,25.17-3.56,25.17
				l-1.65-5.21l-2.41,6.6l-0.51-4.57l-3.42,7.08l-1.18-5.44l-2.46,5.08c0,0,0.54-11.36,0.07-19.04c-0.47-7.68-1.27-12.86-1.27-12.86
				s-1.18,5.08-1.54,8.04c-0.35,2.95-1.37,13.98-1.37,13.98s-1.78-10.03-2.29-16.63c-0.37-4.79,0.11-17.55,0.11-17.55"/>
			<path class="st2" d="M459.09,267.35c0,0,1.3-6.78,1.23-13.63s-0.66-10.61-0.66-10.61"/>
			<path class="st2" d="M463.26,266.18c0,0,1.3-6.78,1.23-13.63c-0.07-6.85-0.66-10.61-0.66-10.61"/>
			<path class="st2" d="M466.73,264.02c0,0,1.3-6.78,1.23-13.63c-0.07-6.85-0.66-10.61-0.66-10.61"/>
		</g>
	</g>
	<polygon class="st2" points="539.18,40.53 384.21,21.1 384.21,270.39 541.55,318.73 	"/>
	<polygon class="st2" points="402.22,41.01 402.22,260.43 521.64,294.56 522.59,55.96 	"/>
	<line class="st5" x1="460.88" y1="49.83" x2="460.98" y2="275.32"/>
	<line class="st5" x1="403.12" y1="108.43" x2="506.48" y2="129.63"/>
	<line class="st5" x1="404.57" y1="201.28" x2="506.48" y2="222.52"/>
	<path class="st0" d="M498.48,18.94l7.73,312.73c0,0,11.85,2.06,18.03,7.21s12.88,0,19.06,0s15.97,3.09,15.97,3.09l-4.33-313.23"/>
	<line class="st2" x1="524.24" y1="338.89" x2="524.24" y2="159.59"/>
	<line class="st2" x1="543.3" y1="338.89" x2="543.3" y2="251.49"/>
	<line class="st2" x1="384.21" y1="21.1" x2="402.22" y2="41.01"/>
	<line class="st2" x1="402.22" y1="260.43" x2="384.21" y2="270.39"/>
</g>
<g id="girl">
	<g>
		<polygon class="st2" points="142.95,526.39 145.3,559.07 159.83,566.63 176.91,560.94 176.91,539.55 		"/>
		<line class="st2" x1="159.83" y1="566.63" x2="159.83" y2="535.23"/>
		<polygon class="st2" points="337.29,604.89 339.65,635.32 354.17,645.13 376.53,634.42 376.53,599.16 		"/>
		<line class="st2" x1="355.08" y1="645.13" x2="354.08" y2="594.84"/>
		<polygon class="st2" points="467.99,555.88 470.35,586.3 484.87,596.12 503.73,588.7 503.73,550.14 		"/>
		<line class="st2" x1="484.87" y1="596.12" x2="483.01" y2="546.16"/>
		<path class="st0" d="M505.25,554.74l-172.07,61.42l-194.31-88.42l-21.04-214.77c-1.91-11.71,5.51-22.92,17.04-25.73l102.45-35.73
			c10.03-3.5,18.66-5.09,28.33-0.67L491.6,354.19c8.32,3.8,13.65,12.11,13.65,21.26V554.74z"/>
		<path class="st2" d="M500.52,360.8l-37.72,14.44L265.9,272.14l-107.58,34.27c-9.5,3.03-15.41,12.5-13.93,22.37l14.67,163.49"/>
		<line class="st2" x1="462.8" y1="375.24" x2="462.8" y2="482.29"/>
		<polygon class="st2" points="505.17,498.99 333.75,565.89 158.86,492.71 156.33,463.18 273.75,415.08 		"/>
		<line class="st2" x1="333.42" y1="565.83" x2="333.18" y2="616.16"/>
	</g>
	<path class="st3" d="M212.67,412.78c0,0-20.64,21.84-29.82,17.96c-9.18-3.87-11.22-33.22-4.83-60.6c6.39-27.38,35.56-80.1,55.99-82
		c20.43-1.9,37.58-10.55,47.08-10.33s70.02-1.53,110.83,5.72s28.67,19.7,24.79,25.5c-3.88,5.8-35.63,17.76-35.63,17.76l-12.49-15.22
		c0,0-32.9,25.06-38.62,27.33c-5.72,2.26-39.46,18.22-51.59,46.19c-3.16,7.29-9.43,24.94-38.73,38.64
		c-6.59,3.08-28.67,4.86-28.67,4.86L212.67,412.78z"/>
	<path class="st2" d="M212.67,412.78l24.11-22.06l-10.03-23.79c0,0-24.35,12.03-31.01,17.17"/>
	<path class="st0" d="M342.92,488.59c0,0,0.41,9.1,6.25,20.83s27.61,28.84,27.82,30.37c0.2,1.52-1.32,5.58-2.88,6.11
		s-4.88,0.24-4.88,0.24s-1.67,1.86-3.19,2.06s-3.1-0.94-3.1-0.94s-1.85,2.01-3.37,2.22c-1.52,0.2-2.78-0.75-2.78-0.75
		s0.56,1.22-1.14,1.57s-12.4-9.45-18.93-13.21c-6.54-3.75-10.75-5.29-13.02-10.01c-2.27-4.72,4.04-9.86,2.94-18.32
		c-1.1-8.47-4.15-17.6-4.15-17.6L342.92,488.59z"/>
	<path class="st0" d="M300.72,487.69c0,0-7.03,7.49-8.58,11.99s0.26,30.14,0.26,30.14s3.45,1.89,3.72,3.8
		c0.27,1.91,1.12,3.72,1.12,3.72s5.53,2.95,5.53,4.68s-2.12,2.71-5.09,1.87c-2.97-0.84-13.22-4.49-17.83-13
		c-4.61-8.51-6.21-16.76-11.58-21.57c-5.37-4.81-8.01-9.39-5.67-14.68c2.35-5.3,15.06-9.98,19.75-13.91
		c4.69-3.93,13.76-15.01,13.76-15.01L300.72,487.69z"/>
	<path class="st0" d="M350.48,307.15c-0.12-0.73-2.73-16.33-2.73-16.33s-11.1,10.15-16.87,17.15c-5.47,6.64-10.25,11.76-10.52,18.97
		C320.1,334.14,350.48,307.15,350.48,307.15z"/>
	<path class="st0" d="M320.37,326.94c0.24-0.7,1.83-7.11-16.28-12.68c-9.47-2.91-35.93-8.11-36.11-8.13
		c-0.18-0.02-2.03,14.61-2.03,14.61L320.37,326.94z"/>
	<g>
		<ellipse class="st6" cx="284.03" cy="260.82" rx="29.28" ry="29.5"/>
		<path d="M311.94,233c0,0,16.42,17,6.64,32.53c-13.37,21.22-4.87,34.17-4.87,34.17s-5.18,4.5-19.16,2.25
			c-6.91-1.11-16.97-10.91-16.97-10.91s0.09-3.04,5.53-3.44c5.84-0.43,10.01-2.31,14.15-7.66C309.89,263.65,311.94,233,311.94,233z"
			/>
		<path d="M270.22,249.76c1.95-5.43,9.4-8.64,14.65-6.25c2.06,0.94,4.29,2.35,6.59,4.45c9.18,8.4,23.62,6.17,23.62,6.17
			s4.75-8.67,0.12-22.14c-5.22-15.2-33.13-22.38-47.3-12.86c-15.13,10.17-13.42,19.91-27.16,28.77
			c-19.23,12.4-20.49,24.14-20.49,24.14s13.28,10.07,20.15,17.93c10.36,11.86,19.73-2.08,19.73-2.08L270.22,249.76z"/>
		<path class="st0" d="M267.62,259.51c0,0-0.36-4.77-4.26-5.52s-6.94,4.56-5.9,8.62c0.74,2.9,3.11,5.45,4.4,6.67
			c0.53,0.5,0.77,1.23,0.64,1.95l-2.7,14.88c-0.87,4.8,1.82,9.55,6.41,11.22c1.17,0.42,2.46,0.8,3.87,1.08
			c1.01,0.2,2.05,0.32,3.06,0.39c4.67,0.29,8.88-2.83,10.13-7.34l0,0c0.37-1.33,1.98-3.3,0.6-3.25c-10.14,0.35-12.5-6.59-12.38-6.87
			"/>
		<path class="st2" d="M292.02,264.16c-0.38,2.2-0.77,6.65-0.77,6.65s-3.7,0.59-5.28-1.15"/>
		<path class="st2" d="M281.55,255.94c0,0,1,2.98,5.02,2.59"/>
		<path class="st2" d="M296.42,261.79c0,0,1.32,2.85,5.28,2.02"/>
		<path class="st2" d="M279.73,273.4l9.98,4.12c0,0-2.51,4.25-7.01,2.45C278.27,278.18,279.73,273.4,279.73,273.4z"/>
		<circle class="st2" cx="282.58" cy="256.74" r="8.18"/>
		<circle class="st2" cx="301" cy="263.05" r="8.18"/>
	</g>
	<path class="st1" d="M254.78,311.98c0.52,0.23,62.31,11.05,62.31,11.05l9.85-0.95l33.25-32.89l-1.47,74.72L326,392.7l-73.46-5.52
		L254.78,311.98z"/>
	<polygon class="st2" points="326.94,322.09 326,392.7 315.36,392.49 317.09,323.03 	"/>
	<g>
		<path class="st7" d="M367.48,312.99c-4.25,0.59-9.25,1.42-12.36,2.37s-9.08,1.14-9.87,2.1c-0.79,0.96,0.97,2.82,2.4,3.21
			c1.43,0.39,4.95-0.11,4.95-0.11s-12.07,14.97-12.57,17.25c-0.51,2.29,0.84,3.53,0.84,3.53s-1.35,2.85-0.48,4.61
			c0.86,1.75,3.43,0.67,3.43,0.67s0.7,1.56,2.19,1.93c1.49,0.37,2.53-0.55,2.53-0.55s2.1,0.67,3.45,0.5
			c1.35-0.18,13.85-9.7,17.46-14.45s5.47-8.47,7.72-10.19"/>
		<line class="st8" x1="340.86" y1="341.36" x2="351.8" y2="329.69"/>
		<line class="st8" x1="343.73" y1="346.55" x2="354.67" y2="334.87"/>
		<line class="st8" x1="348.35" y1="348.19" x2="359.29" y2="336.52"/>
	</g>
	<g>
		<path class="st0" d="M242.42,349.85c0,0,0.34-3.9-0.85-4.54c-1.19-0.64-6.77-2.2-8.25-1.61c-1.48,0.58-3.26,6.68-4.11,8.21
			c-0.85,1.53,4.29,11.33,3.98,14.87c-0.31,3.54-4.77,3.67-4.77,3.67s7.7,17.72,7.96,17.72c5.25,0,19.5-10.44,24.56-15.17
			c5.06-4.74,11.1-9.18,11.46-11.29c0.36-2.11-1.25-4.06-1.25-4.06s2.15-2.29,1.46-3.9c-1.11-2.59-4.87-2.82-4.87-2.82
			s2.49-2.52,1.05-4.43c-1.44-1.91-4.9-1.19-4.9-1.19s-0.33-3.66-2.7-3.81c-2.85-0.18-12.14,4.12-14.44,5.88
			C244.45,349.13,242.42,349.85,242.42,349.85z"/>
		<path class="st2" d="M263.89,345.3c0,0-4.21,1.99-7.84,3.93c-3.63,1.94-9.03,5.86-9.03,5.86"/>
		<path class="st2" d="M267.78,350.96c0,0-4.21,1.99-7.84,3.93c-3.63,1.94-9.03,5.86-9.03,5.86"/>
		<path class="st2" d="M271.53,356.74c0,0-4.21,1.99-7.84,3.93c-3.63,1.94-9.03,5.86-9.03,5.86"/>
		<path class="st2" d="M242.42,349.85c0,0-3.56,2.67-5.15,2.53s-2.87-0.65-2.87-0.65"/>
	</g>
	<path class="st0" d="M328.76,375.92c0,0,57.65-12.08,77.33,10.61S302.82,492.78,302.82,492.78l-17.64-26l40.06-42.61L328.76,375.92
		z"/>
	<path class="st2" d="M343.32,412.62c0.06-0.68,8.2-7.93,8.2-7.93"/>
	<path class="st0" d="M210.98,428.6c0,0,83.35-94.47,111.14-76.66c27.79,17.8,28.8,138.06,28.8,138.06l-31.26,17.88
		c0,0-15.03-27.86-19.86-48.55s-5.34-30.86-5.34-30.86s-14.07,41.04-32.62,53.39c-18.55,12.35-35.53,1.26-42.85-9.34
		C208.84,457.82,210.98,428.6,210.98,428.6z"/>
	<path class="st2" d="M294.47,428.47c0,0-0.82-10.55-2.12-19.75"/>
	<line class="st2" x1="368.59" y1="311.58" x2="389.8" y2="297.89"/>
</g>
<g id="lamp">
	<path class="st2" d="M287.73,112.44h27.53l-6.2-53.95c-0.42-3.61-3.47-6.34-7.11-6.34l0,0c-3.59,0-6.63,2.66-7.1,6.22
		L287.73,112.44z"/>
	<line class="st2" x1="292.94" y1="72.25" x2="269.11" y2="72.25"/>
	<ellipse class="st2" cx="265.51" cy="72.62" rx="13.03" ry="23.95"/>
	<line class="st2" x1="314.86" y1="112.91" x2="455.94" y2="503.91"/>
	<line class="st2" x1="287.73" y1="112.44" x2="248.66" y2="218.65"/>
	<line class="st2" x1="308.54" y1="127.65" x2="322.09" y2="225.68"/>
</g>
</svg>
